<svg width="20" height="20" viewBox="0 0 35 38" fill="none" xmlns="http://www.w3.org/2000/svg">
<path fill-rule="evenodd" clip-rule="evenodd" d="M28.9219 15.3664L32.6004 11.4055C33.7173 10.203 34.2756 9.60172 34.574 8.9531C35.142 7.71906 35.142 6.27022 34.574 5.03615C34.2756 4.38756 33.7173 3.7863 32.6004 2.5838C31.4837 1.3813 30.9252 0.780055 30.3228 0.458638C29.1769 -0.152879 27.8312 -0.152879 26.6852 0.458638C26.0829 0.780055 25.5245 1.3813 24.4077 2.5838L20.6828 6.5947C22.6569 10.235 25.4961 13.2686 28.9219 15.3664ZM17.7038 9.80239L3.63173 24.9546C2.76113 25.8922 2.32583 26.3608 2.03962 26.9366C1.75343 27.5125 1.63269 28.1624 1.39123 29.4625L0.130774 36.2486C-0.00547092 36.9821 -0.0735932 37.3489 0.120185 37.5575C0.313964 37.7661 0.654576 37.6927 1.33582 37.546L7.63804 36.1888C8.84536 35.9288 9.449 35.7989 9.98378 35.4906C10.5186 35.1825 10.9539 34.7138 11.8245 33.7763L25.9352 18.5823C22.6137 16.3425 19.8042 13.338 17.7038 9.80239Z" fill="white"/>
</svg>
