<svg xmlns="http://www.w3.org/2000/svg" width="24" height="24" viewBox="0 0 15 15">
  <path d="M14.1667 6.54547H12.5V4.49999C12.5 3.30652 12.0171 2.16194 11.1576 1.31802C10.298 0.474106 9.13225 0 7.91667 0H7.08333C5.86775 0 4.70198 0.474106 3.84243 1.31802C2.98288 2.16194 2.5 3.30652 2.5 4.49999V6.54547H0.833333C0.61232 6.54547 0.400358 6.63167 0.244078 6.7851C0.0877972 6.93854 0 7.14663 0 7.36364V17.1818C0 17.3988 0.0877972 17.6069 0.244078 17.7604C0.400358 17.9138 0.61232 18 0.833333 18H14.1667C14.3877 18 14.5997 17.9138 14.7559 17.7604C14.9122 17.6069 15 17.3988 15 17.1818V7.36364C15 7.14663 14.9122 6.93854 14.7559 6.7851C14.5997 6.63167 14.3877 6.54547 14.1667 6.54547ZM4.16668 4.49999C4.16668 3.74051 4.47395 3.01215 5.02095 2.47512C5.56793 1.93807 6.30978 1.63637 7.08333 1.63637H7.91667C8.69022 1.63637 9.43207 1.93807 9.97905 2.47512C10.526 3.01215 10.8333 3.74051 10.8333 4.49999V6.54547H4.16668V4.49999ZM3.75 13.5C3.50278 13.5 3.2611 13.428 3.05553 13.2932C2.84998 13.1583 2.68975 12.9666 2.59515 12.7424C2.50055 12.5181 2.47579 12.2714 2.52403 12.0333C2.57225 11.7952 2.6913 11.5765 2.86612 11.4049C3.04092 11.2333 3.26365 11.1164 3.50612 11.069C3.74862 11.0217 3.99995 11.046 4.22835 11.1389C4.45675 11.2318 4.65198 11.3891 4.78933 11.5909C4.9267 11.7927 5 12.03 5 12.2727C5.00583 12.4354 4.97748 12.5976 4.9167 12.7491C4.85595 12.9006 4.76408 13.0381 4.64683 13.1533C4.52958 13.2684 4.38945 13.3586 4.23515 13.4182C4.08088 13.4779 3.91573 13.5057 3.75 13.5ZM7.5 13.5C7.25278 13.5 7.0111 13.428 6.80553 13.2932C6.59998 13.1583 6.43975 12.9666 6.34515 12.7424C6.25055 12.5181 6.22578 12.2714 6.27403 12.0333C6.32225 11.7952 6.4413 11.5765 6.61612 11.4049C6.79092 11.2333 7.01365 11.1164 7.25612 11.069C7.49862 11.0217 7.74995 11.046 7.97835 11.1389C8.20675 11.2318 8.40198 11.3891 8.53933 11.5909C8.6767 11.7927 8.75 12.03 8.75 12.2727C8.75583 12.4354 8.72748 12.5976 8.6667 12.7491C8.60595 12.9006 8.51407 13.0381 8.39682 13.1533C8.27957 13.2684 8.13945 13.3586 7.98515 13.4182C7.83088 13.4779 7.66573 13.5057 7.5 13.5ZM11.25 13.5C11.0028 13.5 10.7611 13.428 10.5555 13.2932C10.35 13.1583 10.1898 12.9666 10.0952 12.7424C10.0006 12.5181 9.97578 12.2714 10.024 12.0333C10.0723 11.7952 10.1913 11.5765 10.3661 11.4049C10.5409 11.2333 10.7637 11.1164 11.0061 11.069C11.2486 11.0217 11.5 11.046 11.7284 11.1389C11.9568 11.2318 12.152 11.3891 12.2893 11.5909C12.4267 11.7927 12.5 12.03 12.5 12.2727C12.5058 12.4354 12.4775 12.5976 12.4167 12.7491C12.356 12.9006 12.2641 13.0381 12.1468 13.1533C12.0296 13.2684 11.8895 13.3586 11.7352 13.4182C11.5809 13.4779 11.4157 13.5057 11.25 13.5Z" fill="#fff"/>
</svg>




