<svg width="200" height="215" viewBox="0 0 200 215" fill="none" xmlns="http://www.w3.org/2000/svg">
<path d="M95.1008 4.09168L90.8043 8.18338V31.2457V54.308L86.5078 55.1759C78.8546 56.6638 68.3818 61.8714 61.6684 67.451L55.2236 72.9066L34.5466 61.8714C23.1339 55.7958 12.9297 50.8362 11.8555 50.8362C7.29047 50.8362 -0.631254 53.812 0.0400789 55.2999C0.442879 56.1678 1.11421 58.7716 1.51701 61.1274C2.45688 65.2191 3.79954 66.2111 23.9395 76.8743L45.2879 88.2814L44.2138 92.2491C43.6767 94.357 43.1397 101.052 43.1397 107.252C43.1397 113.328 43.6767 120.147 44.2138 122.255L45.2879 126.223L23.9395 137.63C3.79954 148.293 2.45688 149.285 1.51701 153.377C1.11421 155.732 0.442879 158.336 0.0400789 159.204C-0.631254 160.692 7.29047 163.668 11.8555 163.668C12.9297 163.668 23.1339 158.708 34.5466 152.633L55.2236 141.597L61.6684 147.053C68.3818 152.633 78.8546 157.84 86.5078 159.328L90.8043 160.196V183.382V206.569L95.5036 210.784L100.203 215L104.902 210.784L109.602 206.569V183.382V160.196L114.032 159.328C121.551 157.84 132.024 152.633 138.737 147.053L145.317 141.597L166.262 152.757C185.597 163.048 187.745 163.792 192.444 163.172C200.5 161.808 200.903 161.312 199.157 154.616L197.815 148.665L176.466 137.506L155.118 126.223L156.192 121.759C157.535 115.807 157.535 98.6967 156.192 92.7451L155.118 88.2814L176.466 76.9983L197.815 65.8391L199.157 59.8875C200.903 53.192 200.5 52.6961 192.444 51.3322C187.745 50.7122 185.597 51.4562 166.262 61.7474L145.317 72.9066L138.737 67.451C132.024 61.8714 121.551 56.6638 114.032 55.1759L109.602 54.308V31.1217V7.93541L105.171 3.9677C102.754 1.73587 100.471 1.90735e-06 100.069 1.90735e-06C99.6659 1.90735e-06 97.5176 1.85985 95.1008 4.09168ZM117.792 76.0063C133.233 83.3218 141.423 98.8206 138.066 113.948C134.307 130.686 118.597 142.589 100.203 142.589C81.8084 142.589 66.0992 130.686 62.3398 113.948C57.5062 92.4971 76.035 71.9146 100.203 71.9146C107.99 71.9146 110.676 72.5346 117.792 76.0063Z" fill="#F6254B"/>
<ellipse cx="100.203" cy="107.872" rx="18.126" ry="16.7388" fill="#F6254B"/>
</svg>
